<?xml version="1.0"?>
<svg xmlns="http://www.w3.org/2000/svg" id="Layer_1" data-name="Layer 1" viewBox="0 0 512 512" width="512" height="512"><title>Application Settings</title><path d="M113,81a34.038,34.038,0,0,1,34-34H117A34.038,34.038,0,0,0,83,81V95h30Z" style="fill:#d4e1f4"/><rect x="83" y="107" width="30" height="286" style="fill:#d4e1f4"/><path d="M113,431V405H83v26a34.038,34.038,0,0,0,34,34h30A34.038,34.038,0,0,1,113,431Z" style="fill:#d4e1f4"/><path d="M118.575,477h160C303.94,477,325,456.364,325,431V369H313v24H85V107H247.575a6,6,0,0,0,0-12H85V81a33.678,33.678,0,0,1,33.575-34h160C297.323,47,313,62.252,313,81V95H298.575a6,6,0,0,0,0,12H313v33h12V81c0-25.364-21.06-46-46.425-46h-160A45.691,45.691,0,0,0,73,81V431A45.691,45.691,0,0,0,118.575,477ZM85,405H313v26c0,18.748-15.677,34-34.425,34h-160A33.678,33.678,0,0,1,85,431Z" style="fill:#0635c9"/><path d="M267.27,95a6,6,0,0,0,0,12h11.115a6,6,0,0,0,0-12Z" style="fill:#0635c9"/><path d="M198.575,456a21,21,0,1,0-21-21A21.023,21.023,0,0,0,198.575,456Zm0-30a9,9,0,1,1-9,9A9.01,9.01,0,0,1,198.575,426Z" style="fill:#0635c9"/><path d="M170.71,237a6,6,0,0,0,0,12H179a6,6,0,0,0,0-12Z" style="fill:#0635c9"/><path d="M108,249h36.177a6,6,0,1,0,0-12H108a6,6,0,0,0,0,12Z" style="fill:#0635c9"/><path d="M185,293a6,6,0,0,0-6-6H140.71a6,6,0,0,0,0,12H179A6,6,0,0,0,185,293Z" style="fill:#0635c9"/><path d="M108,299h6.177a6,6,0,1,0,0-12H108a6,6,0,0,0,0,12Z" style="fill:#0635c9"/><path d="M181,349h28a6,6,0,0,0,0-12H181a6,6,0,0,0,0,12Z" style="fill:#0635c9"/><path d="M108,349h46.177a6,6,0,1,0,0-12H108a6,6,0,0,0,0,12Z" style="fill:#0635c9"/><path d="M195,189a6,6,0,0,0-6-6H151a6,6,0,0,0,0,12h38A6,6,0,0,0,195,189Z" style="fill:#0635c9"/><path d="M108,195h16.177a6,6,0,0,0,0-12H108a6,6,0,0,0,0,12Z" style="fill:#0635c9"/><path d="M203.287,278.831l20.664,2A96.663,96.663,0,0,0,234.3,305.5l-13.2,15.917a6,6,0,0,0,.37,8.069l23.778,23.783a6,6,0,0,0,8.068.379l15.953-13.212A98.7,98.7,0,0,0,293.9,350.84l2,20.736A6,6,0,0,0,301.867,377h33.717a6,6,0,0,0,5.973-5.424l2-20.733a96.732,96.732,0,0,0,24.667-10.38l15.918,13.182a6,6,0,0,0,8.069-.379l23.783-23.783a6,6,0,0,0,.378-8.069L403.159,305.46a98.684,98.684,0,0,0,10.408-24.636L433.8,278.83a5.82,5.82,0,0,0,5.2-5.972V239.141a5.818,5.818,0,0,0-5.212-5.972l-20.626-2A96.613,96.613,0,0,0,402.835,206.5l13.208-15.917a6,6,0,0,0-.339-8.042l-23.475-23.783a6,6,0,0,0-8.093-.406l-15.952,13.212a98.685,98.685,0,0,0-24.63-10.407l-2-20.736A6,6,0,0,0,335.584,135H301.867a6,6,0,0,0-5.972,5.424l-2,20.733a96.732,96.732,0,0,0-24.667,10.38l-15.917-13.182a6,6,0,0,0-8.07.379l-23.783,23.783a6,6,0,0,0-.378,8.069l13.212,15.954a98.757,98.757,0,0,0-10.408,24.63l-20.6,2A5.882,5.882,0,0,0,198,239.141v33.717A5.883,5.883,0,0,0,203.287,278.831ZM210,244.591l19.425-1.886a5.922,5.922,0,0,0,5.221-4.7,86.74,86.74,0,0,1,12.088-28.722,6,6,0,0,0-.438-7.079l-12.48-15.06,16.053-16.058,15.058,12.471a6,6,0,0,0,7.154.371,84.222,84.222,0,0,1,28.646-12.073,6,6,0,0,0,4.7-5.289L307.317,147h22.818l1.885,19.562a6,6,0,0,0,4.705,5.289,86.862,86.862,0,0,1,28.722,12.123,6,6,0,0,0,7.08-.421L387.559,171.1l15.806,16.009L390.872,202.2a6,6,0,0,0-.372,7.154A84.2,84.2,0,0,1,402.573,238a5.762,5.762,0,0,0,5.077,4.7L427,244.591v22.825L407.944,269.3a5.881,5.881,0,0,0-5.176,4.7A86.7,86.7,0,0,1,390.7,302.721a6,6,0,0,0,.447,7.079l12.485,15.06L387.58,340.918l-15.057-12.471a6,6,0,0,0-7.153-.371,84.213,84.213,0,0,1-28.646,12.073,6,6,0,0,0-4.7,5.289L330.135,365H307.317l-1.886-19.562a6,6,0,0,0-4.7-5.289,86.862,86.862,0,0,1-28.722-12.123,6,6,0,0,0-7.08.421l-15.06,12.471L233.807,324.86l12.472-15.06a6,6,0,0,0,.371-7.154A84.207,84.207,0,0,1,234.577,274a5.844,5.844,0,0,0-5.152-4.7L210,267.409Z" style="fill:#1ae5be"/><path d="M318.726,327.646A71.646,71.646,0,1,0,247.08,256,71.727,71.727,0,0,0,318.726,327.646Zm0-131.292A59.646,59.646,0,1,1,259.08,256,59.713,59.713,0,0,1,318.726,196.354Z" style="fill:#1ae5be"/><path d="M306.6,277.371a6,6,0,0,0,8.383,0l34.984-34.156a6,6,0,1,0-8.383-8.586l-30.793,30.063-15.227-14.866a6,6,0,0,0-8.382,8.587Z" style="fill:#1ae5be"/></svg>
