<svg height="512pt" viewBox="-1 0 512 512.00024" width="512pt" xmlns="http://www.w3.org/2000/svg"><path d="m360.335938 504.296875c-83.117188 0-150.734376-67.613281-150.734376-150.722656 0-38.867188 14.808594-75.792969 41.699219-103.972657 20.675781-21.675781 46.902344-36.574218 75.84375-43.085937l10.460938-2.351563-5.691407-9.089843c-1.527343-2.4375-2.269531-5.265625-2.148437-8.167969.152344-3.859375 1.789063-7.410156 4.613281-10.015625 2.660156-2.460937 6.113282-3.8125 9.730469-3.8125.859375 0 1.71875.078125 2.5625.230469 3.136719.550781 5.914063 2.066406 8.0625 4.390625l27.496094 29.78125c5.183593 5.609375 5.082031 14.300781-.230469 19.796875l-28.292969 29.203125c-2.675781 2.761719-6.058593 4.425781-9.535156 4.691406-.382813.027344-.769531.042969-1.152344.042969-3.765625 0-7.328125-1.4375-10.027343-4.054688-2.921876-2.828125-4.472657-6.648437-4.367188-10.746094l.289062-11.183593-10.5 3.855469c-47.855468 17.578124-80.007812 63.589843-80.007812 114.488281 0 67.226562 54.695312 121.917969 121.929688 121.917969 67.222656 0 121.914062-54.691407 121.914062-121.917969 0-30.398438-11.246094-59.519531-31.671875-82.003907-5.15625-5.679687-5.1875-14.105468-.074219-19.609374l.109375-.113282c2.734375-2.941406 6.480469-4.574218 10.523438-4.574218s7.765625 1.636718 10.476562 4.605468c25.4375 27.824219 39.445313 63.941406 39.445313 101.695313-.003906 83.109375-67.617188 150.722656-150.722656 150.722656zm0 0" fill="#5db33a"/><path d="m99.460938 93.367188c-7.421876 8.648437-16.894532 14.503906-27.085938 17.457031-17.71875 5.15625-37.609375 1.546875-52.652344-11.363281-23.699218-20.339844-26.421875-56.035157-6.09375-79.730469 14.929688-17.398438 38.128906-23.5 58.789063-17.46875 7.484375 2.171875 14.640625 5.957031 20.949219 11.363281 23.699218 20.339844 26.421874 56.035156 6.09375 79.742188zm0 0" fill="#ffb52d"/><path d="m206.871094 157.5c-4.792969 20.578125-20.265625 35.890625-39.199219 41.445312-9.039063 2.652344-18.875 3.078126-28.699219.789063-30.414062-7.089844-49.328125-37.484375-42.234375-67.898437 1.933594-8.296876 5.601563-15.75 10.53125-22.042969h.011719c6.601562-8.421875 15.472656-14.785157 25.472656-18.371094 9.890625-3.554687 20.878906-4.386719 31.878906-1.832031 1.019532.242187 2.019532.5 3.007813.792968 28.644531 8.328126 46.082031 37.710938 39.230469 67.117188zm0 0" fill="#ffb52d"/><g fill="#ffc14f"><path d="m99.460938 93.367188c-7.421876 8.648437-16.894532 14.503906-27.085938 17.457031-7.484375-2.171875-14.640625-5.957031-20.953125-11.363281-23.695313-20.339844-26.429687-56.035157-6.089844-79.730469 7.421875-8.664063 16.894531-14.515625 27.085938-17.46875 7.484375 2.171875 14.640625 5.957031 20.949219 11.363281 23.699218 20.339844 26.421874 56.035156 6.09375 79.742188zm0 0"/><path d="m132.753906 91.421875c-.519531.65625-1.050781 1.300781-1.601562 1.945313-6.632813 7.734374-14.910156 13.234374-23.871094 16.425781 6.601562-8.421875 15.472656-14.785157 25.472656-18.371094zm0 0"/><path d="m206.871094 157.5c-4.792969 20.578125-20.265625 35.890625-39.199219 41.445312-28.648437-8.328124-46.085937-37.714843-39.242187-67.109374 4.792968-20.585938 20.273437-35.902344 39.210937-41.453126 28.644531 8.328126 46.082031 37.710938 39.230469 67.117188zm0 0"/></g><path d="m64.214844 49.488281.042968-.09375-4.679687-1.722656c-6.101563-2.242187-6.101563-2.773437-6.101563-4.195313 0-1.386718.449219-1.632812.808594-1.832031.808594-.445312 2.117188-.691406 3.691406-.691406 2.789063 0 4.140626.695313 5.453126 1.371094 1.054687.539062 2.363281 1.214843 4.074218 1.214843 4.394532 0 7.347656-4.082031 7.347656-7.890624 0-2.640626-1.441406-7.121094-10.574218-8.886719-.128906-4.15625-3.546875-7.496094-7.730469-7.496094-4.265625 0-7.738281 3.46875-7.738281 7.738281v.753906c-6.746094 2.660157-10.566406 8.4375-10.566406 16.128907 0 12.21875 9.132812 15.652343 15.179687 17.925781 6.203125 2.328125 7.417969 3.078125 7.417969 6.441406 0 2.550782-.78125 4.023438-4.773438 4.023438-3.5 0-4.625-1.214844-5.929687-2.621094-1.117188-1.207031-2.808594-3.027344-5.707031-3.027344-4.242188 0-7.414063 4.164063-7.414063 7.886719 0 4.957031 4.84375 9.652344 11.792969 11.671875.054687 4.21875 3.503906 7.636719 7.734375 7.636719 4.269531 0 7.738281-3.46875 7.738281-7.734375v-.121094c7.425781-2.628906 11.792969-9.261719 11.792969-18.125 0-11.589844-7.023438-16.195312-11.859375-18.355469zm0 0" fill="#f29500"/><path d="m159.472656 137.605469.042969-.09375-4.679687-1.71875c-6.101563-2.242188-6.101563-2.773438-6.101563-4.195313 0-1.386718.449219-1.636718.808594-1.835937.808593-.445313 2.117187-.691407 3.691406-.691407 2.789063 0 4.140625.695313 5.453125 1.371094 1.054688.542969 2.363281 1.21875 4.074219 1.21875 4.394531 0 7.347656-4.082031 7.347656-7.890625 0-2.640625-1.441406-7.121093-10.574219-8.890625-.128906-4.152344-3.546875-7.492187-7.730468-7.492187-4.265626 0-7.738282 3.46875-7.738282 7.734375v.757812c-6.746094 2.65625-10.566406 8.4375-10.566406 16.128906 0 12.21875 9.132812 15.652344 15.179688 17.921876 6.203124 2.332031 7.417968 3.082031 7.417968 6.445312 0 2.546875-.78125 4.023438-4.773437 4.023438-3.5 0-4.625-1.214844-5.929688-2.621094-1.117187-1.207032-2.808593-3.03125-5.707031-3.03125-4.242188 0-7.414062 4.167968-7.414062 7.890625 0 4.957031 4.84375 9.648437 11.792968 11.671875.054688 4.21875 3.503906 7.636718 7.734375 7.636718 4.269531 0 7.738281-3.472656 7.738281-7.738281v-.117187c7.425782-2.632813 11.792969-9.261719 11.792969-18.125 0-11.589844-7.023437-16.195313-11.859375-18.359375zm0 0" fill="#f29500"/><path d="m247.460938 399.746094c0 55.835937-40.769532 102.148437-94.148438 110.796875-6.40625 1.039062-12.988281 1.539062-19.707031 1.445312-60.460938-.839843-109.808594-50.199219-110.640625-110.671875-.59375-43.878906 23.988281-82.070312 60.214844-101.054687.238281-.125.464843-.25.695312-.386719 9.617188-5.457031 14.140625-16.96875 10.875-27.617188l-3.992188-13.046874h-.011718l-29.421875-96.054688c-1.28125-4.179688 1.847656-8.414062 6.214843-8.414062h135.453126c4.335937 0 7.453124 4.171874 6.238281 8.339843l-28.230469 96.128907-4.117188 14.003906c-2.984374 10.160156 1.121094 20.960937 9.867188 26.660156.550781.363281 1.125.707031 1.714844 1.03125 35.136718 18.964844 58.996094 56.113281 58.996094 98.839844zm0 0" fill="#ae583e"/><path d="m247.460938 399.746094c0 55.835937-40.769532 102.148437-94.148438 110.796875-52.738281-8.597657-93.464844-54.335938-94.226562-109.226563-.59375-43.878906 23.988281-82.070312 60.214843-101.054687.238281-.125.46875-.25.695313-.386719 9.617187-5.457031 14.140625-16.96875 10.875-27.617188l-3.992188-13.046874h-.007812l-29.425782-96.054688c-1.28125-4.179688 1.847657-8.414062 6.214844-8.414062h99.332032c4.335937 0 7.453124 4.171874 6.238281 8.339843l-28.230469 96.128907-4.117188 14.003906c-2.984374 10.160156 1.121094 20.960937 9.867188 26.660156.550781.363281 1.125.707031 1.714844 1.03125 35.136718 18.964844 58.996094 56.113281 58.996094 98.839844zm0 0" fill="#c0694e"/><path d="m186.75 299.875h-102.875c9.617188-5.457031 14.140625-16.96875 10.875-27.617188l-3.992188-13.046874h90.242188l-4.117188 14.003906c-2.984374 10.160156 1.121094 20.960937 9.867188 26.660156zm0 0" fill="#ffa90b"/><path d="m145.871094 392.316406c-11.222656-4.15625-22.289063-6.324218-22.289063-15.777344 0-16.175781 21.230469-9.597656 36.328125-4.742187 10.105469-.621094 23.171875-21.789063-12.550781-27.960937v-10.167969c0-6.710938-5.4375-12.148438-12.148437-12.148438-6.710938 0-12.148438 5.4375-12.148438 12.148438v11.824219c-.167969.121093-23.351562 4.675781-23.351562 31.945312 0 23.578125 16.816406 29.894531 30.324218 34.972656 13.523438 5.082032 19.503906 7.789063 19.503906 18.757813 0 13.976562-10.234374 12.617187-16.4375 13.703125-15.9375-.503906-15.082031-12.347656-24.949218-12.347656-6.171875 0-11.140625 6.8125-11.140625 12.453124 0 15.960938 25.792969 21.992188 25.957031 22.074219h.09375v10.226563c0 6.710937 5.4375 12.148437 12.148438 12.148437 6.710937 0 12.148437-5.4375 12.148437-12.148437v-10.476563h.050781c.90625-.667969 26-5.304687 26-36.53125 0-30.621093-25.15625-36.160156-27.539062-37.953125zm0 0" fill="#ffc14f"/><path d="m130.871094 272.257812-3.992188-13.050781h-36.121094l3.992188 13.050781c3.265625 10.648438-1.257812 22.15625-10.875 27.617188h36.121094c9.617187-5.457031 14.140625-16.96875 10.875-27.617188zm0 0" fill="#f29500"/></svg>