<svg height="512" viewBox="0 0 64 64" width="512" xmlns="http://www.w3.org/2000/svg"><g id="Invoice-File-Business_Model-Money-Share" data-name="Invoice-File-Business Model-Money-Share"><rect fill="#e6e7e8" height="58" rx="2" width="38" x="13" y="3"/><circle cx="5" cy="34" fill="#ee8700" r="2"/><circle cx="5" cy="24" fill="#ee8700" r="2"/><circle cx="5" cy="14" fill="#ee8700" r="2"/><circle cx="59" cy="34" fill="#ee8700" r="2"/><circle cx="59" cy="24" fill="#ee8700" r="2"/><circle cx="59" cy="14" fill="#ee8700" r="2"/><path d="m47 3v8l-2-3-2 3v-8z" fill="#ff5023"/><circle cx="34" cy="26" fill="#d1d3d4" r="9"/><circle cx="32" cy="24" fill="#ffd422" r="9"/><path d="m33 23h-2a1 1 0 0 1 0-2h2a1 1 0 0 1 1 1h2a3 3 0 0 0 -3-3v-1h-2v1a3 3 0 0 0 0 6h2a1 1 0 0 1 0 2h-2a1 1 0 0 1 -1-1h-2a3 3 0 0 0 3 3v1h2v-1a3 3 0 0 0 0-6z" fill="#ed1c24"/><path d="m5 17a3 3 0 1 1 3-3 3 3 0 0 1 -3 3zm0-4a1 1 0 1 0 1 1 1 1 0 0 0 -1-1z" fill="#ff9811"/><path d="m5 27a3 3 0 1 1 3-3 3 3 0 0 1 -3 3zm0-4a1 1 0 1 0 1 1 1 1 0 0 0 -1-1z" fill="#ff9811"/><path d="m5 37a3 3 0 1 1 3-3 3 3 0 0 1 -3 3zm0-4a1 1 0 1 0 1 1 1 1 0 0 0 -1-1z" fill="#ff9811"/><path d="m16 31h2v2h-2z" fill="#ffa733"/><path d="m20 31h2v2h-2z" fill="#ffa733"/><path d="m16 15h2v2h-2z" fill="#ffa733"/><path d="m20 15h2v2h-2z" fill="#ffa733"/><path d="m59 17a3 3 0 1 1 3-3 3 3 0 0 1 -3 3zm0-4a1 1 0 1 0 1 1 1 1 0 0 0 -1-1z" fill="#ff9811"/><path d="m59 27a3 3 0 1 1 3-3 3 3 0 0 1 -3 3zm0-4a1 1 0 1 0 1 1 1 1 0 0 0 -1-1z" fill="#ff9811"/><path d="m59 37a3 3 0 1 1 3-3 3 3 0 0 1 -3 3zm0-4a1 1 0 1 0 1 1 1 1 0 0 0 -1-1z" fill="#ff9811"/><path d="m46 31h2v2h-2z" fill="#ffa733"/><path d="m42 31h2v2h-2z" fill="#ffa733"/><path d="m46 15h2v2h-2z" fill="#ffa733"/><path d="m42 15h2v2h-2z" fill="#ffa733"/><g fill="#bcbec0"><path d="m22 40h8v2h-8z"/><path d="m18 40h2v2h-2z"/><path d="m18 44h12v2h-12z"/><path d="m18 48h12v2h-12z"/><path d="m18 52h12v2h-12z"/><path d="m34 40h12v2h-12z"/><path d="m34 44h12v2h-12z"/><path d="m34 48h12v2h-12z"/><path d="m34 52h12v2h-12z"/></g><path d="m10 23h14v2h-14z" fill="#ffa733"/><path d="m40 23h14v2h-14z" fill="#ffa733"/><path d="m24 21h-13a1 1 0 0 1 -.707-.293l-3-3 1.414-1.414 2.707 2.707h12.586z" fill="#ffa733"/><path d="m8.707 31.707-1.414-1.414 3-3a1 1 0 0 1 .707-.293h13v2h-12.586z" fill="#ffa733"/><path d="m53 21h-13v-2h12.586l2.707-2.707 1.414 1.414-3 3a1 1 0 0 1 -.707.293z" fill="#ffa733"/><path d="m55.293 31.707-2.707-2.707h-12.586v-2h13a1 1 0 0 1 .707.293l3 3z" fill="#ffa733"/></g></svg>