<svg height="511pt" viewBox="1 -35 511.99994 511" width="511pt" xmlns="http://www.w3.org/2000/svg"><path d="m414.894531 53.464844h70.621094v-35.308594c-.027344-9.738281-7.914063-17.628906-17.652344-17.65625h-300.140625c-9.738281.027344-17.625 7.917969-17.652344 17.65625v35.308594zm0 0" fill="#c6c5ca"/><path d="m432.550781 71.121094v35.308594h52.964844v-52.964844h-70.617187c9.734374.027344 17.625 7.917968 17.652343 17.65625zm0 0" fill="#787680"/><path d="m432.550781 106.429688h52.964844v88.277343h-52.964844zm0 0" fill="#c6c5ca"/><path d="m185.378906 406.566406v35.3125h141.242188v-35.3125zm0 0" fill="#ffc477"/><path d="m326.621094 406.566406h8.828125v-35.308594h-141.242188v35.308594zm0 0" fill="#ffa733"/><path d="m326.621094 335.949219h-141.242188v35.308593h141.242188zm0 0" fill="#ffc477"/><path d="m8.828125 441.878906h141.242187v-35.3125h-141.242187zm0 0" fill="#ffa733"/><path d="m0 371.257812v35.308594h141.242188v-35.308594zm0 0" fill="#ffc477"/><path d="m8.828125 335.949219v35.308593h141.242187v-35.308593zm0 0" fill="#ffa733"/><path d="m17.65625 335.949219h141.238281v-35.3125h-141.238281zm0 0" fill="#ffc477"/><path d="m0 265.328125v35.308594h141.242188v-35.308594zm0 0" fill="#ffa733"/><path d="m361.929688 406.566406v35.3125h141.242187v-35.3125zm0 0" fill="#ffa733"/><path d="m370.757812 406.566406h141.242188v-35.308594h-141.242188zm0 0" fill="#ffc477"/><path d="m370.757812 371.257812h141.242188v-35.308593h-141.242188zm0 0" fill="#ffa733"/><path d="m361.929688 300.636719v35.3125h141.242187v-35.3125zm0 0" fill="#ffc477"/><path d="m370.757812 300.636719h141.242188v-35.308594h-141.242188zm0 0" fill="#ffa733"/><path d="m432.550781 194.707031h-61.792969v35.308594h141.242188v-35.308594zm0 0" fill="#ffa733"/><path d="m353.101562 230.015625v35.3125h141.242188v-35.3125zm0 0" fill="#ffc477"/><path d="m97.101562 230.015625h-88.273437v35.3125h141.242187v-35.3125zm0 0" fill="#ffc477"/><path d="m414.894531 53.464844h-300.136719c-9.738281.03125-17.625 7.917968-17.652343 17.65625v158.894531h52.964843v35.3125h203.03125v-35.3125h17.65625v-35.308594h61.792969v-123.585937c-.027343-9.738282-7.917969-17.628906-17.65625-17.65625zm-282.480469 35.308594h88.277344v52.96875h-88.277344zm238.34375 52.96875c-6.527343.011718-12.824218-2.410157-17.65625-6.796876-4.828124 4.386719-11.125 6.808594-17.652343 6.796876-14.625 0-26.484375-11.859376-26.484375-26.484376s11.859375-26.484374 26.484375-26.484374c6.527343-.011719 12.824219 2.410156 17.652343 6.800781 4.832032-4.390625 11.128907-6.8125 17.65625-6.800781 14.625 0 26.484376 11.859374 26.484376 26.484374s-11.859376 26.484376-26.484376 26.484376zm0 0" fill="#acabb1"/><path d="m353.101562 134.945312c4.832032 4.386719 11.128907 6.808594 17.65625 6.796876 14.625 0 26.484376-11.859376 26.484376-26.484376s-11.859376-26.484374-26.484376-26.484374c-6.527343-.011719-12.824218 2.410156-17.65625 6.800781 10.875 9.679687 11.839844 26.339843 2.15625 37.214843-.675781.757813-1.394531 1.476563-2.15625 2.15625zm0 0" fill="#ffa733"/><path d="m361.929688 115.257812c-.050782-14.605468-11.878907-26.429687-26.480469-26.484374-14.628907 0-26.484375 11.859374-26.484375 26.484374s11.855468 26.484376 26.484375 26.484376c14.601562-.054688 26.429687-11.878907 26.480469-26.484376zm0 0" fill="#ff7956"/><g fill="#ffc477"><path d="m185.378906 115.257812h35.3125v26.484376h-35.3125zm0 0"/><path d="m185.378906 115.257812h-26.484375v-26.484374h-26.480469v52.96875h52.964844zm0 0"/><path d="m185.378906 115.257812h35.3125v-26.484374h-61.796875v26.484374zm0 0"/></g><path d="m220.691406 106.429688h-52.96875v-17.652344h-17.652344v26.480468c0 4.875 3.953126 8.828126 8.828126 8.828126h17.652343v17.65625h17.65625v-17.65625h26.484375zm0 0" fill="#ffa733"/><path d="m123.585938 185.878906h158.894531v17.65625h-158.894531zm0 0" fill="#d1d3d4"/><path d="m176.550781 221.1875h105.929688v17.65625h-105.929688zm0 0" fill="#d1d3d4"/></svg>