<?xml version="1.0" encoding="iso-8859-1"?>
<!-- Generator: Adobe Illustrator 19.0.0, SVG Export Plug-In . SVG Version: 6.00 Build 0)  -->
<svg version="1.1" id="Capa_1" xmlns="http://www.w3.org/2000/svg" xmlns:xlink="http://www.w3.org/1999/xlink" x="0px" y="0px"
	 viewBox="0 0 512 512" style="enable-background:new 0 0 512 512;" xml:space="preserve">
<path style="fill:#86D5B5;" d="M501.698,85.281H94.034c-5.666,0-10.302,4.637-10.302,10.303v79.989h328.966
	c5.666,0,10.302,4.636,10.302,10.302v155.833h78.698c5.666,0,10.302-4.636,10.302-10.302V95.584
	C512,89.918,507.364,85.281,501.698,85.281z"/>
<path style="fill:#FFBB4A;" d="M439.935,122.909c-20.09,0-36.375,16.534-36.375,36.931c0,5.629,1.245,10.96,3.463,15.733h5.675
	c5.666,0,10.302,4.636,10.302,10.302v6.648c5.059,2.707,10.818,4.247,16.935,4.247c20.09,0,36.375-16.533,36.375-36.931
	C476.31,139.443,460.025,122.909,439.935,122.909z"/>
<path style="fill:#EF5A50;" d="M411.078,175.573c2.218-4.773,3.463-10.104,3.463-15.733c0-20.396-16.285-36.931-36.375-36.931
	s-36.375,16.534-36.375,36.931c0,5.629,1.245,10.96,3.463,15.733H411.078z"/>
<path style="fill:#3EAF91;" d="M166.092,175.573V85.281H94.034c-5.666,0-10.302,4.637-10.302,10.303v79.989H166.092z"/>
<path style="opacity:0.1;enable-background:new    ;" d="M116.981,175.573V95.584c0-5.666,4.636-10.303,10.302-10.303H94.034
	c-5.666,0-10.302,4.637-10.302,10.303v79.989H116.981z"/>
<path style="fill:#E6E9ED;" d="M428.268,416.416c0,5.666-4.636,10.303-10.302,10.303H10.302C4.636,426.719,0,422.082,0,416.416
	V180.594c0-5.666,4.636-10.302,10.302-10.302h407.664c5.666,0,10.302,4.636,10.302,10.302V416.416z"/>
<path style="opacity:0.1;enable-background:new    ;" d="M28.33,416.416V180.594c0-5.666,4.636-10.302,10.302-10.302h-28.33
	C4.636,170.292,0,174.928,0,180.594v235.822c0,5.666,4.636,10.303,10.302,10.303h28.33C32.966,426.719,28.33,422.082,28.33,416.416z
	"/>
<path style="fill:#FFFFFF;" d="M376.31,317.33c0,2.833-2.317,5.15-5.15,5.15H57.107c-2.833,0-5.151-2.317-5.151-5.15v-50.659
	c0-2.833,2.318-5.15,5.151-5.15H371.16c2.833,0,5.15,2.317,5.15,5.15V317.33z"/>
<path style="opacity:0.1;enable-background:new    ;" d="M85.143,317.33v-50.659c0-2.833,2.318-5.15,5.151-5.15H57.107
	c-2.833,0-5.151,2.317-5.151,5.15v50.659c0,2.833,2.318,5.15,5.151,5.15h33.186C87.461,322.48,85.143,320.163,85.143,317.33z"/>
<rect y="233.01" style="fill:#08375E;" width="428.27" height="39.946"/>
<g>
	<path style="fill:#78A7AF;" d="M111.185,393.804H56.279c-4.142,0-7.5-3.357-7.5-7.5s3.358-7.5,7.5-7.5h54.906
		c4.142,0,7.5,3.357,7.5,7.5S115.327,393.804,111.185,393.804z"/>
	<path style="fill:#78A7AF;" d="M111.185,369.094H56.279c-4.142,0-7.5-3.358-7.5-7.5c0-4.143,3.358-7.5,7.5-7.5h54.906
		c4.142,0,7.5,3.357,7.5,7.5C118.685,365.736,115.327,369.094,111.185,369.094z"/>
</g>
<path style="fill:#08375E;" d="M377.047,385.559c0,2.833-2.318,5.15-5.151,5.15h-55.63c-2.833,0-5.151-2.317-5.151-5.15v-24.235
	c0-2.833,2.318-5.151,5.151-5.151h55.63c2.833,0,5.151,2.318,5.151,5.151V385.559z"/>
<g>
</g>
<g>
</g>
<g>
</g>
<g>
</g>
<g>
</g>
<g>
</g>
<g>
</g>
<g>
</g>
<g>
</g>
<g>
</g>
<g>
</g>
<g>
</g>
<g>
</g>
<g>
</g>
<g>
</g>
</svg>
