<?xml version="1.0" encoding="iso-8859-1"?>
<!-- Generator: Adobe Illustrator 19.0.0, SVG Export Plug-In . SVG Version: 6.00 Build 0)  -->
<svg version="1.1" id="Layer_1" xmlns="http://www.w3.org/2000/svg" xmlns:xlink="http://www.w3.org/1999/xlink" x="0px" y="0px"
	 viewBox="0 0 508.2 508.2" style="enable-background:new 0 0 508.2 508.2;" xml:space="preserve">
<path style="fill:#FFFFFF;" d="M376.7,406.6l22,22l29.9-29.9l-22-22c-4.8-4.8-5.5-12.4-1.6-18c15.1-21.7,25.1-45.9,29.8-71.9
	c1.2-6.7,7.1-11.6,13.9-11.6h31.1v-42.3h-31.1c-6.8,0-12.7-4.9-13.9-11.6c-4.7-26-14.7-50.2-29.8-71.9c-3.9-5.6-3.2-13.2,1.6-18
	l22-22l-29.9-29.9l-22,22c-4.8,4.8-12.4,5.5-18,1.6C337,88,312.8,78,286.8,73.3c-6.7-1.2-11.6-7.1-11.6-13.9V28.2h-42.3v31.1
	c0,6.8-4.9,12.7-11.6,13.9c-26,4.7-50.2,14.7-71.9,29.8c-5.6,3.9-13.2,3.2-18-1.6l-22-22l-29.9,29.9l22,22c4.8,4.8,5.5,12.4,1.6,18
	C88,171,78,195.2,73.3,221.2c-1.2,6.7-7.1,11.6-13.9,11.6H28.2v42.3h31.1c6.8,0,12.7,4.9,13.9,11.6c4.7,26,14.7,50.2,29.8,71.9
	c3.9,5.6,3.2,13.2-1.6,18l-22,22l29.9,29.9l22-22c4.8-4.8,12.4-5.5,18-1.6c21.7,15.1,45.9,25.1,71.9,29.8
	c6.7,1.2,11.6,7.1,11.6,13.9v31.1h42.3v-31.1c0-6.8,4.9-12.7,11.6-13.9c26-4.7,50.2-14.7,71.9-29.8
	C364.3,401.1,371.9,401.8,376.7,406.6z"/>
<circle style="fill:#56ACE0;" cx="254" cy="254" r="152.8"/>
<path style="fill:#FFC10D;" d="M254,286.8c-18.5,0-34.2,11.8-40,28.3h80C288.2,298.7,272.5,286.8,254,286.8z"/>
<g>
	<path style="fill:#194F82;" d="M493.9,204.6h-33.8c-5.2-21.8-13.7-42.4-25.5-61.4l23.9-23.9c5.5-4.9,5.9-14.6,0-20l-49.9-49.9
		c-5.3-5.3-14.7-5.3-20,0l-23.9,23.9C345.6,61.6,325,53,303.3,47.8V14.1C303.3,6.3,297,0,289.2,0h-70.6c-7.8,0-14.1,6.3-14.1,14.1
		v33.8c-21.8,5.2-42.4,13.7-61.4,25.5l-23.9-23.9c-5.7-5.2-13.7-5.6-20,0L49.3,99.4c-5.5,6-5.4,14.6,0,20l23.9,23.9
		c-11.7,19.1-20.3,39.7-25.5,61.4H14.1C6.3,204.7,0,211,0,218.8v70.6c0,7.8,6.3,14.1,14.1,14.1h33.8c5.2,21.8,13.7,42.4,25.5,61.4
		l-23.9,23.9c-5.6,4.4-5.8,14.8,0,20l49.9,49.9c5.3,5.3,14.7,5.3,20,0l23.9-23.9c19.1,11.7,39.7,20.3,61.4,25.5v33.8
		c0,7.8,6.3,14.1,14.1,14.1h70.6c7.8,0,14.1-6.3,14.1-14.1v-33.8c21.8-5.2,42.4-13.7,61.4-25.5l23.9,23.9c6,5.5,14.8,5.5,20,0
		l49.9-49.9c5.7-6.3,5.4-14.8,0-20l-23.9-23.9c11.7-19.1,20.3-39.7,25.5-61.4h33.8c7.8,0,14.1-6.3,14.1-14.1v-70.6
		C508,210.9,501.7,204.6,493.9,204.6z M479.8,275.2h-31.1c-6.8,0-12.7,4.9-13.9,11.6c-4.7,26-14.7,50.2-29.8,71.9
		c-3.9,5.6-3.2,13.2,1.6,18l22,22l-29.9,29.9l-22-22c-4.8-4.8-12.4-5.5-18-1.6c-21.7,15.1-45.9,25.1-71.9,29.8
		c-6.7,1.2-11.6,7.1-11.6,13.9v31.1h-42.3v-31.1c0-6.8-4.9-12.7-11.6-13.9c-26-4.7-50.2-14.7-71.9-29.8c-5.6-3.9-13.2-3.2-18,1.6
		l-22,22l-29.9-29.9l22-22c4.8-4.8,5.5-12.4,1.6-18C88,337,78,312.8,73.3,286.8c-1.2-6.7-7.1-11.6-13.9-11.6H28.2v-42.3h31.1
		c6.8,0,12.7-4.9,13.9-11.6c4.7-26,14.7-50.2,29.8-71.9c3.9-5.6,3.2-13.2-1.6-18l-22-22l29.9-29.9l22,22c4.8,4.8,12.4,5.5,18,1.6
		C171,88,195.2,78,221.2,73.3c6.7-1.2,11.6-7.1,11.6-13.9V28.2h42.3v31.1c0,6.8,4.9,12.7,11.6,13.9c26,4.7,50.2,14.7,71.9,29.8
		c5.6,3.9,13.2,3.2,18-1.6l22-22l29.9,29.9l-22,22c-4.8,4.8-5.5,12.4-1.6,18c15.1,21.7,25.1,45.9,29.8,71.9
		c1.2,6.7,7.1,11.6,13.9,11.6h31.1v42.4H479.8z"/>
	<path style="fill:#194F82;" d="M359.5,315.2h-36.3c-3.6-17.8-14-33.2-28.3-43.4L344.2,160c3.1-7.1-0.1-15.5-7.2-18.6
		s-15.5,0.1-18.6,7.2l-49.3,111.8c-4.9-1.1-9.9-1.7-15.1-1.7c-34.1,0-62.6,24.3-69.2,56.6h-36.3c-7.8,0-14.1,6.3-14.1,14.1
		s6.3,14.1,14.1,14.1h211c7.8,0,14.1-6.3,14.1-14.1S367.3,315.2,359.5,315.2z M214,315.2c5.8-16.5,21.5-28.3,40-28.3
		s34.1,11.9,40,28.3H214z"/>
</g>
<g>
</g>
<g>
</g>
<g>
</g>
<g>
</g>
<g>
</g>
<g>
</g>
<g>
</g>
<g>
</g>
<g>
</g>
<g>
</g>
<g>
</g>
<g>
</g>
<g>
</g>
<g>
</g>
<g>
</g>
</svg>
