<svg height="512" viewBox="0 0 60 46" width="512" xmlns="http://www.w3.org/2000/svg"><g id="Page-1" fill="none" fill-rule="evenodd"><g id="024---Delivery-Lorry" fill-rule="nonzero"><path id="Shape" d="m59 32v-14.333c0-.4327404-.1403557-.8538077-.4-1.2l-8-10.667c-.3777088-.50361169-.9704854-.8-1.6-.8h-9v29z" fill="#c03a2b"/><path id="Shape" d="m44 10v9c0 .5522847.4477153 1 1 1h9c.5522847 0 1-.4477153 1-1v-.333c0-.2163702-.0701779-.4269038-.2-.6l-6.5-8.667c-.1888544-.25180584-.4852427-.4-.8-.4h-2.5c-.5522847 0-1 .44771525-1 1z" fill="#2fa8cc"/><path id="Shape" d="m46 25h-2c-.5522847 0-1-.4477153-1-1s.4477153-1 1-1h2c.5522847 0 1 .4477153 1 1s-.4477153 1-1 1z" fill="#802f34"/><path id="Shape" d="m56 24h3v4h-3c-.5522847 0-1-.4477153-1-1v-2c0-.5522847.4477153-1 1-1z" fill="#f0c419"/><path id="Shape" d="m40 2v32l-39-2 7.621-30.485c.22262043-.89062096 1.02297743-1.51532 1.941-1.515h27.438c1.1045695 0 2 .8954305 2 2z" fill="#e64c3c"/><path id="Shape" d="m14 37h43c1.1032019-.0032948 1.9967052-.8967981 2-2v-3h-58v3c.0032948 1.1032019.89679813 1.9967052 2 2z" fill="#2c3e50"/><circle id="Oval" cx="10" cy="40" fill="#35495e" r="5"/><circle id="Oval" cx="10" cy="40" fill="#3f5c6c" r="2"/><circle id="Oval" cx="50" cy="40" fill="#35495e" r="5"/><g fill="#fb7b76"><circle id="Oval" cx="1" cy="4" r="1"/><path id="Shape" d="m16 5h-11c-.55228475 0-1-.44771525-1-1s.44771525-1 1-1h11c.5522847 0 1 .44771525 1 1s-.4477153 1-1 1z"/><path id="Shape" d="m25 5h-5c-.5522847 0-1-.44771525-1-1s.4477153-1 1-1h5c.5522847 0 1 .44771525 1 1s-.4477153 1-1 1z"/><path id="Shape" d="m5 25h-4c-.55228475 0-1-.4477153-1-1s.44771525-1 1-1h4c.55228475 0 1 .4477153 1 1s-.44771525 1-1 1z"/></g><path id="Shape" d="m2 46h-1c-.55228475 0-1-.4477153-1-1s.44771525-1 1-1h1c.55228475 0 1 .4477153 1 1s-.44771525 1-1 1z" fill="#547580"/><path id="Shape" d="m59 46h-54c-.55228475 0-1-.4477153-1-1s.44771525-1 1-1h54c.5522847 0 1 .4477153 1 1s-.4477153 1-1 1z" fill="#547580"/><path id="Shape" d="m37 29h-13c-.5522847 0-1-.4477153-1-1s.4477153-1 1-1h13c.5522847 0 1 .4477153 1 1s-.4477153 1-1 1z" fill="#c03a2b"/><path id="Shape" d="m20 29h-2c-.5522847 0-1-.4477153-1-1s.4477153-1 1-1h2c.5522847 0 1 .4477153 1 1s-.4477153 1-1 1z" fill="#c03a2b"/><path id="Shape" d="m27 19c0-2.209139-1.790861-4-4-4-.9038505.0022652-1.6961809-.6037115-1.9307046-1.4766086-.2345237-.8728972.1474227-1.7943701.9307046-2.2453914v.722c0 .5522847.4477153 1 1 1s1-.4477153 1-1v-.71c.4216857.2367703.7419015.6199618.9 1.077.174522.5246705.7413295.808522 1.266.634s.808522-.7413295.634-1.266c-.4297309-1.2868998-1.4848377-2.26664175-2.8-2.6v-1.135c0-.55228475-.4477153-1-1-1s-1 .44771525-1 1v1.142c-1.9482742.50144572-3.2190002 2.3742805-2.9650329 4.3699561.2539674 1.9956755 1.953264 3.4905487 3.9650329 3.4880439.9038505-.0022652 1.6961809.6037115 1.9307046 1.4766086.2345237.8728972-.1474227 1.7943701-.9307046 2.2453914v-.722c0-.5522847-.4477153-1-1-1s-1 .4477153-1 1v.71c-.4216857-.2367703-.7419015-.6199618-.9-1.077-.1128959-.3394023-.398285-.5927937-.748664-.6647242-.350379-.0719304-.712517.0485282-.95.3160001-.2374831.2674719-.3142319.6413218-.201336.9807241.4297309 1.2868998 1.4848377 2.2666417 2.8 2.6v1.135c0 .5522847.4477153 1 1 1s1-.4477153 1-1v-1.142c1.7606851-.4545933 2.9931852-2.0395884 3-3.858z" fill="#f0c419"/><path id="Shape" d="m16.04 15h-5.08c-.1864199.0001594-.3572706.1040144-.4432362.26943-.0859657.1654155-.0727689.3649191.0342362.51757l2.539 3.628c.0935206.1339829.2466063.2138182.41.2138182s.3164794-.0798353.41-.2138182l2.539-3.628c.1070051-.1526509.1202019-.3521545.0342362-.51757-.0859656-.1654156-.2568163-.2692706-.4432362-.26943z" fill="#f29c1f"/><path id="Shape" d="m35.04 15h-5.08c-.1864199.0001594-.3572706.1040144-.4432362.26943-.0859657.1654155-.0727689.3649191.0342362.51757l2.539 3.628c.0935206.1339829.2466063.2138182.41.2138182s.3164794-.0798353.41-.2138182l2.539-3.628c.1070051-.1526509.1202019-.3521545.0342362-.51757-.0859656-.1654156-.2568163-.2692706-.4432362-.26943z" fill="#f29c1f"/><circle id="Oval" cx="50" cy="40" fill="#3f5c6c" r="2"/></g></g></svg>