<svg xmlns="http://www.w3.org/2000/svg" height="512pt" version="1.1" viewBox="-71 0 512 512.00002" width="512pt">
<g id="surface1">
<path d="M 185.378906 317.792969 L 132.414062 317.792969 C 151.914062 317.792969 167.722656 333.601562 167.722656 353.101562 C 167.722656 372.605469 151.914062 388.414062 132.414062 388.414062 L 238.34375 388.414062 L 238.34375 441.378906 L 291.308594 441.378906 L 291.308594 317.792969 Z M 185.378906 317.792969 " style=" stroke:none;fill-rule:nonzero;fill:rgb(100%,71.372549%,33.333333%);fill-opacity:1;" />
<path d="M 79.449219 388.414062 L 132.414062 388.414062 L 132.414062 441.378906 L 79.449219 441.378906 Z M 79.449219 388.414062 " style=" stroke:none;fill-rule:nonzero;fill:rgb(84.313725%,57.647059%,22.352941%);fill-opacity:1;" />
<path d="M 132.414062 388.414062 L 185.378906 388.414062 L 185.378906 441.378906 L 132.414062 441.378906 Z M 132.414062 388.414062 " style=" stroke:none;fill-rule:nonzero;fill:rgb(94.901961%,63.529412%,22.352941%);fill-opacity:1;" />
<path d="M 185.378906 388.414062 L 238.34375 388.414062 L 238.34375 441.378906 L 185.378906 441.378906 Z M 185.378906 388.414062 " style=" stroke:none;fill-rule:nonzero;fill:rgb(100%,59.607843%,6.666667%);fill-opacity:1;" />
<path d="M 79.449219 264.828125 L 132.414062 264.828125 L 132.414062 317.792969 L 79.449219 317.792969 Z M 79.449219 264.828125 " style=" stroke:none;fill-rule:nonzero;fill:rgb(84.313725%,57.647059%,22.352941%);fill-opacity:1;" />
<path d="M 132.414062 264.828125 L 185.378906 264.828125 L 185.378906 317.792969 L 132.414062 317.792969 Z M 132.414062 264.828125 " style=" stroke:none;fill-rule:nonzero;fill:rgb(93.333333%,52.941176%,0%);fill-opacity:1;" />
<path d="M 185.378906 264.828125 L 238.34375 264.828125 L 238.34375 317.792969 L 185.378906 317.792969 Z M 185.378906 264.828125 " style=" stroke:none;fill-rule:nonzero;fill:rgb(100%,59.607843%,6.666667%);fill-opacity:1;" />
<path d="M 238.34375 264.828125 L 291.308594 264.828125 L 291.308594 317.792969 L 238.34375 317.792969 Z M 238.34375 264.828125 " style=" stroke:none;fill-rule:nonzero;fill:rgb(100%,65.490196%,20%);fill-opacity:1;" />
<path d="M 167.722656 353.101562 C 167.722656 333.601562 151.914062 317.792969 132.414062 317.792969 L 79.449219 317.792969 L 79.449219 388.414062 L 132.414062 388.414062 C 151.914062 388.414062 167.722656 372.605469 167.722656 353.101562 Z M 167.722656 353.101562 " style=" stroke:none;fill-rule:nonzero;fill:rgb(100%,59.607843%,6.666667%);fill-opacity:1;" />
<path d="M 132.414062 441.378906 L 79.449219 441.378906 L 79.449219 264.828125 L 185.378906 264.828125 L 185.378906 0 L 35.308594 0 C 15.808594 0 0 15.808594 0 35.308594 L 0 476.691406 C 0 496.191406 15.808594 512 35.308594 512 L 185.378906 512 L 185.378906 441.378906 Z M 132.414062 441.378906 " style=" stroke:none;fill-rule:nonzero;fill:rgb(81.960784%,82.745098%,83.137255%);fill-opacity:1;" />
<path d="M 282.484375 0 L 185.378906 0 L 185.378906 264.828125 L 291.308594 264.828125 L 291.308594 441.378906 L 185.378906 441.378906 L 185.378906 512 L 335.449219 512 C 354.949219 512 370.757812 496.191406 370.757812 476.691406 L 370.757812 88.277344 Z M 282.484375 0 " style=" stroke:none;fill-rule:nonzero;fill:rgb(90.196078%,90.588235%,90.980392%);fill-opacity:1;" />
</g>
</svg>