<?xml version="1.0" encoding="iso-8859-1"?>
<!-- Generator: Adobe Illustrator 19.0.0, SVG Export Plug-In . SVG Version: 6.00 Build 0)  -->
<svg version="1.1" id="Capa_1" xmlns="http://www.w3.org/2000/svg" xmlns:xlink="http://www.w3.org/1999/xlink" x="0px" y="0px"
	 viewBox="0 0 512 512" style="enable-background:new 0 0 512 512;" xml:space="preserve">
<path style="fill:#F0EFEB;" d="M512,256c0,5.757-0.188,11.463-0.564,17.115c-0.376,5.705-0.94,11.368-1.693,16.959
	c-1.452,11.024-3.626,21.828-6.457,32.361C474.039,431.616,374.408,512,256,512C138.313,512,39.173,432.588,9.247,324.42
	c-3.218-11.619-5.632-23.562-7.178-35.777c-1.233-9.634-1.923-19.425-2.048-29.362C0.01,258.184,0,257.097,0,256
	c0-19.08,2.09-37.669,6.05-55.557C31.42,85.765,133.695,0,256,0c125.273,0,229.533,89.987,251.664,208.844
	C510.516,224.131,512,239.888,512,256z"/>
<path style="fill:#676FE7;" d="M278.285,145.209c-0.022,9.497-0.074,18.994-0.029,28.491c0.006,1.324-0.436,1.784-1.656,2.041
	c-11.373,2.398-22.736,4.837-34.095,7.295c-1.278,0.277-1.727,0.012-1.719-1.399c0.057-8.978,0.053-17.958,0.001-26.935
	c-0.007-1.254,0.427-1.654,1.615-1.9c11.434-2.361,22.855-4.793,34.279-7.206c0.327-0.069,0.711-0.01,0.907-0.388
	C277.821,145.209,278.053,145.209,278.285,145.209z"/>
<g>
	<path style="fill:#666EE7;" d="M403.466,234.527c-3.396-12.716-9.258-24.054-19.78-32.308
		c-13.908-10.919-29.215-13.249-45.662-6.28c-4.127,1.745-7.711,4.409-11.379,7.638c-0.585-2.748-1.202-5.151-1.588-7.596
		c-0.219-1.358-0.825-1.63-2.069-1.63c-9.738,0.052-19.477,0.052-29.215,0c-1.421-0.01-1.86,0.366-1.86,1.839
		c0.031,56.32,0.031,112.65-0.01,168.981c0,1.651,0.606,1.787,1.943,1.505c11.139-2.393,22.277-4.807,33.437-7.074
		c1.599-0.324,1.86-0.972,1.86-2.393c0.031-12.633,0.115-25.266,0.209-37.898c0-0.502-0.251-1.202,0.199-1.463
		c0.585-0.334,1.034,0.334,1.473,0.658c10.992,7.952,23.155,9.937,36.143,6.646c15.245-3.856,25.297-13.897,31.786-27.836
		c4.253-9.122,6.269-18.829,7.032-28.829C406.862,257.034,406.444,245.687,403.466,234.527z M366.289,278.549
		c-1.86,4.65-4.577,8.662-8.547,11.828c-7.826,6.238-21.535,3.939-27.669-2.476c-0.648-0.669-0.742-1.369-0.742-2.194
		c0.01-4.347-0.01-8.694-0.021-13.03v-13.04h-0.199c0-8.631,0.021-17.262-0.021-25.893c0-1.076,0.324-1.829,1.066-2.591
		c6.823-7.126,23.343-10.428,32.287,2.393c3.981,5.705,6.05,12.089,6.865,18.892C370.375,261.36,369.643,270.127,366.289,278.549z"
		/>
	<path style="fill:#666EE7;" d="M452.88,273.084c19.519,0,39.037-0.01,58.556,0.031C511.812,267.463,512,261.757,512,256
		c0-16.112-1.484-31.869-4.336-47.156c-2.403-2.811-5.151-5.371-8.297-7.638c-12.769-9.195-27.063-10.909-42.068-7.701
		c-14.346,3.051-25.13,11.41-32.925,23.688c-6.551,10.334-9.822,21.765-10.825,33.896c-1.034,12.518-0.24,24.889,3.835,36.864
		c6.907,20.302,20.887,32.716,41.9,37.115c10.742,2.257,21.535,1.891,32.287,0.178c3.992-0.637,7.91-1.557,11.713-2.811
		c2.832-10.533,5.005-21.337,6.457-32.361c-11.839,4.692-24.21,6.363-37.01,4.974c-11.64-1.264-19.696-7.189-21.838-19.508
		C450.476,273.136,450.487,273.084,452.88,273.084z M450.121,244.757c0.387-7.837,2.424-14.921,9.373-19.55
		c10.668-7.116,24.085-1.735,27.732,11.065c0.752,2.633,1.139,5.308,1.212,8.056c0.031,1.17-0.366,1.463-1.484,1.452
		c-5.851-0.052-11.703-0.021-17.554-0.021c-5.914,0-11.828,0-17.742-0.01C450.967,245.75,450.058,246.053,450.121,244.757z"/>
	<path style="fill:#666EE7;" d="M61.597,320.136c-7.565,3.803-15.611,5.674-24.012,6.322c-9.676,0.742-19.111-0.01-28.338-2.038
		c-3.218-11.619-5.632-23.562-7.178-35.777c6.552,2.612,13.322,4.545,20.376,5.622c4.765,0.731,9.582,1.014,14.357,0.115
		c3.605-0.69,6.802-2.1,7.847-6.134c0.784-2.988,0.136-5.622-2.027-7.847c-2.361-2.424-5.319-3.918-8.401-5.13
		c-6.353-2.487-12.79-4.775-19.111-7.335c-5.433-2.194-10.595-4.88-15.088-8.652C0.01,258.184,0,257.097,0,256
		c0-19.08,2.09-37.669,6.05-55.557c3.678-2.372,7.743-4.159,12.11-5.507c9.331-2.873,18.892-3.187,28.547-2.55
		c9.258,0.616,18.192,2.591,26.906,5.684c1.473,0.522,2.006,1.181,1.996,2.832c-0.094,10.198-0.052,20.396-0.052,30.595v2.079
		c-4.42-2.205-8.714-4.044-13.187-5.433c-8.004-2.508-16.165-4.033-24.586-3.95c-2.372,0.021-4.723,0.303-6.969,1.212
		c-5.433,2.194-6.447,8.568-1.902,12.319c3.145,2.581,6.917,3.929,10.689,5.277c7.408,2.644,14.973,4.859,21.995,8.495
		c7.576,3.918,14.075,9.017,17.763,16.959C86.497,283.836,84.167,308.767,61.597,320.136z"/>
	<path style="fill:#666EE7;" d="M90.248,231.996c0-19.586-0.001-39.17,0.003-58.756c0-0.694,0.066-1.389,0.066-2.082
		c0-0.778,0.389-1.093,1.134-1.25c11.304-2.377,22.606-4.762,33.898-7.196c1.582-0.341,1.253,0.662,1.248,1.473
		c-0.065,9.501-0.11,19.004-0.249,28.504c-0.022,1.484,0.282,1.968,1.876,1.95c8.285-0.089,16.572-0.014,24.857-0.071
		c1.287-0.009,1.673,0.309,1.665,1.631c-0.057,9.039-0.023,18.079-0.036,27.118c-0.004,2.843-0.029,2.853-2.786,2.842
		c-7.937-0.029-15.874-0.041-23.811-0.126c-1.295-0.014-1.778,0.232-1.773,1.681c0.056,16.862,0.037,33.723,0.037,50.586
		c0,1.736,0.144,3.457,0.491,5.16c1.798,8.81,8.975,11.555,17.359,10.791c3.055-0.278,6.065-0.884,8.966-1.914
		c0.933-0.331,1.442-0.432,1.44,0.904c-0.013,9.153,0.03,18.308,0.105,27.461c0.008,1.011-0.456,1.412-1.27,1.778
		c-5.233,2.357-10.811,3.211-16.437,3.929c-4.147,0.529-8.359,0.714-12.444,0.248c-12.958-1.479-26.574-8.361-32.366-25.095
		c-1.503-4.342-2.11-8.813-2.097-13.415c0.049-18.715,0.021-37.431,0.021-56.148C90.179,231.996,90.213,231.996,90.248,231.996z"/>
	<path style="fill:#666EE7;" d="M200.866,205.438c1.913-3.058,3.872-5.687,6.569-7.659c7.172-5.246,15.082-5.595,23.361-3.532
		c0.77,0.192,0.965,0.658,0.964,1.394c-0.015,10.547-0.024,21.094,0.005,31.642c0.004,1.416-0.732,1.075-1.566,0.886
		c-6.649-1.511-13.105-1.069-19.279,1.992c-0.827,0.41-1.619,0.905-2.383,1.424c-3.36,2.278-5.189,4.924-5.141,9.522
		c0.282,26.945,0.124,53.895,0.174,80.842c0.003,1.61-0.295,2.154-2.047,2.139c-11.126-0.09-22.253-0.073-33.38-0.013
		c-1.47,0.008-1.817-0.426-1.816-1.852c0.038-41.958,0.039-83.915-0.003-125.873c-0.001-1.492,0.461-1.795,1.858-1.787
		c9.562,0.06,19.125,0.06,28.686-0.003c1.304-0.008,1.803,0.39,2.037,1.637C199.464,199.187,200.158,202.149,200.866,205.438z"/>
</g>
<path style="fill:#676FE7;" d="M278.221,259.469c0,20.86-0.017,41.722,0.034,62.582c0.004,1.565-0.363,2.045-1.993,2.034
	c-11.184-0.074-22.367-0.069-33.551-0.003c-1.523,0.009-1.936-0.375-1.935-1.919c0.044-41.895,0.044-83.79,0-125.686
	c-0.002-1.528,0.368-1.93,1.91-1.921c11.184,0.071,22.367,0.068,33.551,0.003c1.556-0.009,2.026,0.35,2.022,1.98
	C278.201,217.515,278.221,238.492,278.221,259.469z"/>
<g>
</g>
<g>
</g>
<g>
</g>
<g>
</g>
<g>
</g>
<g>
</g>
<g>
</g>
<g>
</g>
<g>
</g>
<g>
</g>
<g>
</g>
<g>
</g>
<g>
</g>
<g>
</g>
<g>
</g>
</svg>
