<svg id="Capa_1" enable-background="new 0 0 512 512" height="512" viewBox="0 0 512 512" width="512" xmlns="http://www.w3.org/2000/svg"><g><path d="m448.032 430.758h-384.064c-5.523 0-10-4.477-10-10v-329.516c0-5.523 4.477-10 10-10h384.065c5.523 0 10 4.477 10 10v329.516c-.001 5.523-4.478 10-10.001 10z" fill="#3342aa"/><path d="m448.032 430.758h-12.224v-349.516h12.224c5.523 0 10 4.477 10 10v329.516c0 5.523-4.477 10-10 10z" fill="#2b3890"/><path d="m86.293 385.807v-259.614c0-5.523 4.477-10 10-10h319.414c5.523 0 10 4.477 10 10v259.613c0 5.523-4.477 10-10 10h-319.414c-5.523.001-10-4.477-10-9.999z" fill="#ecf4ff"/><path d="m415.707 116.193h-12.224v279.613h12.224c5.523 0 10-4.477 10-10v-259.613c0-5.522-4.477-10-10-10z" fill="#cbe2ff"/><g><path d="m504.5 104.904c-4.142 0-7.5-3.358-7.5-7.5v-55.13h-55.13c-4.142 0-7.5-3.358-7.5-7.5s3.358-7.5 7.5-7.5h62.63c4.142 0 7.5 3.358 7.5 7.5v62.63c0 4.142-3.358 7.5-7.5 7.5z" fill="#dd636e"/></g><g><path d="m7.5 104.904c-4.142 0-7.5-3.358-7.5-7.5v-62.63c0-4.142 3.358-7.5 7.5-7.5h62.63c4.142 0 7.5 3.358 7.5 7.5s-3.358 7.5-7.5 7.5h-55.13v55.13c0 4.142-3.358 7.5-7.5 7.5z" fill="#dd636e"/></g><g><path d="m504.5 484.726h-62.63c-4.142 0-7.5-3.358-7.5-7.5s3.358-7.5 7.5-7.5h55.13v-55.13c0-4.142 3.358-7.5 7.5-7.5s7.5 3.358 7.5 7.5v62.63c0 4.142-3.358 7.5-7.5 7.5z" fill="#dd636e"/></g><g><path d="m70.13 484.726h-62.63c-4.142 0-7.5-3.358-7.5-7.5v-62.63c0-4.142 3.358-7.5 7.5-7.5s7.5 3.358 7.5 7.5v55.13h55.13c4.142 0 7.5 3.358 7.5 7.5s-3.358 7.5-7.5 7.5z" fill="#dd636e"/></g><g><path d="m390.35 364.52c-4.142 0-7.5-3.358-7.5-7.5v-84.86c0-4.142 3.358-7.5 7.5-7.5s7.5 3.358 7.5 7.5v84.86c0 4.142-3.358 7.5-7.5 7.5z" fill="#3342aa"/></g><g><path d="m390.35 247.34c-4.142 0-7.5-3.358-7.5-7.5v-84.86c0-4.142 3.358-7.5 7.5-7.5s7.5 3.358 7.5 7.5v84.86c0 4.142-3.358 7.5-7.5 7.5z" fill="#3342aa"/></g><g><path d="m351.97 314.01c-4.142 0-7.5-3.358-7.5-7.5v-34.35c0-4.142 3.358-7.5 7.5-7.5s7.5 3.358 7.5 7.5v34.35c0 4.142-3.358 7.5-7.5 7.5z" fill="#3342aa"/></g><g><path d="m351.97 247.34c-4.142 0-7.5-3.358-7.5-7.5v-84.86c0-4.142 3.358-7.5 7.5-7.5s7.5 3.358 7.5 7.5v84.86c0 4.142-3.358 7.5-7.5 7.5z" fill="#3342aa"/></g><g><path d="m313.58 314.01c-4.142 0-7.5-3.358-7.5-7.5v-34.35c0-4.142 3.358-7.5 7.5-7.5s7.5 3.358 7.5 7.5v34.35c0 4.142-3.358 7.5-7.5 7.5z" fill="#3342aa"/></g><g><path d="m313.58 247.34c-4.142 0-7.5-3.358-7.5-7.5v-84.86c0-4.142 3.358-7.5 7.5-7.5s7.5 3.358 7.5 7.5v84.86c0 4.142-3.358 7.5-7.5 7.5z" fill="#3342aa"/></g><g><path d="m275.19 314.01c-4.142 0-7.5-3.358-7.5-7.5v-34.35c0-4.142 3.358-7.5 7.5-7.5s7.5 3.358 7.5 7.5v34.35c0 4.142-3.358 7.5-7.5 7.5z" fill="#3342aa"/></g><g><path d="m275.19 247.34c-4.142 0-7.5-3.358-7.5-7.5v-84.86c0-4.142 3.358-7.5 7.5-7.5s7.5 3.358 7.5 7.5v84.86c0 4.142-3.358 7.5-7.5 7.5z" fill="#3342aa"/></g><g><path d="m236.81 314.01c-4.142 0-7.5-3.358-7.5-7.5v-34.35c0-4.142 3.358-7.5 7.5-7.5s7.5 3.358 7.5 7.5v34.35c0 4.142-3.358 7.5-7.5 7.5z" fill="#3342aa"/></g><g><path d="m236.81 247.34c-4.142 0-7.5-3.358-7.5-7.5v-84.86c0-4.142 3.358-7.5 7.5-7.5s7.5 3.358 7.5 7.5v84.86c0 4.142-3.358 7.5-7.5 7.5z" fill="#3342aa"/></g><g><path d="m198.42 314.01c-4.142 0-7.5-3.358-7.5-7.5v-34.35c0-4.142 3.358-7.5 7.5-7.5s7.5 3.358 7.5 7.5v34.35c0 4.142-3.358 7.5-7.5 7.5z" fill="#3342aa"/></g><g><path d="m198.42 247.34c-4.142 0-7.5-3.358-7.5-7.5v-84.86c0-4.142 3.358-7.5 7.5-7.5s7.5 3.358 7.5 7.5v84.86c0 4.142-3.358 7.5-7.5 7.5z" fill="#3342aa"/></g><g><path d="m160.03 314.01c-4.142 0-7.5-3.358-7.5-7.5v-34.35c0-4.142 3.358-7.5 7.5-7.5s7.5 3.358 7.5 7.5v34.35c0 4.142-3.358 7.5-7.5 7.5z" fill="#3342aa"/></g><g><path d="m160.03 247.34c-4.142 0-7.5-3.358-7.5-7.5v-84.86c0-4.142 3.358-7.5 7.5-7.5s7.5 3.358 7.5 7.5v84.86c0 4.142-3.358 7.5-7.5 7.5z" fill="#3342aa"/></g><g><path d="m351.965 364.516c-4.142 0-7.5-3.358-7.5-7.5v-12.122c0-4.142 3.358-7.5 7.5-7.5s7.5 3.358 7.5 7.5v12.122c0 4.142-3.358 7.5-7.5 7.5z" fill="#3342aa"/></g><g><path d="m313.579 364.516c-4.142 0-7.5-3.358-7.5-7.5v-12.122c0-4.142 3.358-7.5 7.5-7.5s7.5 3.358 7.5 7.5v12.122c0 4.142-3.358 7.5-7.5 7.5z" fill="#3342aa"/></g><g><path d="m275.193 364.516c-4.142 0-7.5-3.358-7.5-7.5v-12.122c0-4.142 3.358-7.5 7.5-7.5s7.5 3.358 7.5 7.5v12.122c0 4.142-3.358 7.5-7.5 7.5z" fill="#3342aa"/></g><g><path d="m236.807 364.516c-4.142 0-7.5-3.358-7.5-7.5v-12.122c0-4.142 3.358-7.5 7.5-7.5s7.5 3.358 7.5 7.5v12.122c0 4.142-3.358 7.5-7.5 7.5z" fill="#3342aa"/></g><g><path d="m198.421 364.516c-4.142 0-7.5-3.358-7.5-7.5v-12.122c0-4.142 3.358-7.5 7.5-7.5s7.5 3.358 7.5 7.5v12.122c0 4.142-3.358 7.5-7.5 7.5z" fill="#3342aa"/></g><g><path d="m160.035 364.516c-4.142 0-7.5-3.358-7.5-7.5v-12.122c0-4.142 3.358-7.5 7.5-7.5s7.5 3.358 7.5 7.5v12.122c0 4.142-3.358 7.5-7.5 7.5z" fill="#3342aa"/></g><g><path d="m121.65 364.52c-4.142 0-7.5-3.358-7.5-7.5v-84.86c0-4.142 3.358-7.5 7.5-7.5s7.5 3.358 7.5 7.5v84.86c0 4.142-3.358 7.5-7.5 7.5z" fill="#3342aa"/></g><g><path d="m121.65 247.34c-4.142 0-7.5-3.358-7.5-7.5v-84.86c0-4.142 3.358-7.5 7.5-7.5s7.5 3.358 7.5 7.5v84.86c0 4.142-3.358 7.5-7.5 7.5z" fill="#3342aa"/></g><path d="m494.5 272.163h-477c-5.523 0-10-4.477-10-10v-12.325c0-5.523 4.477-10 10-10h477c5.523 0 10 4.477 10 10v12.325c0 5.522-4.477 10-10 10z" fill="#dd636e"/><path d="m494.5 272.163h-16.264v-32.325h16.264c5.523 0 10 4.477 10 10v12.325c0 5.522-4.477 10-10 10z" fill="#da4a54"/></g></svg>